<svg width="30" height="26" viewBox="0 0 30 26" fill="none" xmlns="http://www.w3.org/2000/svg">
<path d="M28.6973 1.76257C27.5002 2.60692 26.1749 3.25271 24.7723 3.67507C24.0194 2.80946 23.0189 2.19593 21.9061 1.91748C20.7932 1.63902 19.6216 1.70906 18.5499 2.11814C17.4781 2.52721 16.5578 3.25557 15.9135 4.20472C15.2692 5.15386 14.9319 6.27799 14.9473 7.42507V8.67507C12.7506 8.73203 10.5739 8.24484 8.61103 7.25688C6.6482 6.26892 4.96016 4.81086 3.69727 3.01257C3.69727 3.01257 -1.30273 14.2626 9.94727 19.2626C7.37293 21.01 4.30621 21.8862 1.19727 21.7626C12.4473 28.0126 26.1973 21.7626 26.1973 7.38757C26.1961 7.03939 26.1626 6.69206 26.0973 6.35007C27.373 5.09194 28.2733 3.50346 28.6973 1.76257Z" stroke="#02897A" stroke-width="2" stroke-linecap="round" stroke-linejoin="round"/>
</svg>
